A:\Common\BMMB\PROJECTS\STRATO\DataSTRATO\DataSTRATO\0021~016 ID\0021~aa~ID 016\W8_STRATO_ID_16.mot
version=1
nRows=32
nColumns=19
inDegrees=yes

BTS OpenSim export

endheader
time	r.gr_force_vx	r.gr_force_vy	r.gr_force_vz	r.gr_force_px	r.gr_force_py	r.gr_force_pz	l.gr_force_vx	l.gr_force_vy	l.gr_force_vz	l.gr_force_px	l.gr_force_py	l.gr_force_pz	r.gr_torque_x	r.gr_torque_y	r.gr_torque_z	l.gr_torque_x	l.gr_torque_y	l.gr_torque_z
5.308000	-33.52738190	626.82977295	121.15492249	0.20607629	-0.00002544	0.97057027	0.00000000	0.00000000	0.00000000	0.00000000	0.00000000	0.00000000	-0.00024671	-0.81260884	-0.00014398	0.00000000	0.00000000	0.00000000
5.312000	-35.95558548	626.92480469	118.36012268	0.20657299	-0.00002541	0.96957368	0.00000000	0.00000000	0.00000000	0.00000000	0.00000000	0.00000000	-0.00028586	-0.94155955	-0.00016683	0.00000000	0.00000000	0.00000000
5.316000	-38.31118011	626.68145752	115.10066223	0.20703273	-0.00002539	0.96865201	0.00000000	0.00000000	0.00000000	0.00000000	0.00000000	0.00000000	-0.00032924	-1.08443379	-0.00019214	0.00000000	0.00000000	0.00000000
5.320000	-40.78919601	625.88647461	111.64378357	0.20750529	-0.00002539	0.96782309	0.00000000	0.00000000	0.00000000	0.00000000	0.00000000	0.00000000	-0.00037167	-1.22421205	-0.00021691	0.00000000	0.00000000	0.00000000
5.324000	-43.46081924	624.64300537	108.11783600	0.20800348	-0.00002540	0.96706432	0.00000000	0.00000000	0.00000000	0.00000000	0.00000000	0.00000000	-0.00041122	-1.35445178	-0.00023998	0.00000000	0.00000000	0.00000000
5.328000	-46.19759369	623.64978027	104.54583740	0.20849553	-0.00002542	0.96631765	0.00000000	0.00000000	0.00000000	0.00000000	0.00000000	0.00000000	-0.00045157	-1.48737001	-0.00026353	0.00000000	0.00000000	0.00000000
5.332000	-48.82072067	623.59167480	100.90861511	0.20895199	-0.00002542	0.96556413	0.00000000	0.00000000	0.00000000	0.00000000	0.00000000	0.00000000	-0.00049594	-1.63350224	-0.00028942	0.00000000	0.00000000	0.00000000
5.336000	-51.24598312	624.59368896	97.27543640	0.20936984	-0.00002542	0.96480727	0.00000000	0.00000000	0.00000000	0.00000000	0.00000000	0.00000000	-0.00054465	-1.79395032	-0.00031785	0.00000000	0.00000000	0.00000000
5.340000	-53.51316452	626.25653076	93.77870941	0.20978175	-0.00002541	0.96405560	0.00000000	0.00000000	0.00000000	0.00000000	0.00000000	0.00000000	-0.00059403	-1.95660233	-0.00034667	0.00000000	0.00000000	0.00000000
5.344000	-55.68525314	628.21429443	90.52352142	0.21021019	-0.00002541	0.96331459	0.00000000	0.00000000	0.00000000	0.00000000	0.00000000	0.00000000	-0.00064174	-2.11375141	-0.00037452	0.00000000	0.00000000	0.00000000
5.348000	-57.75372696	630.52355957	87.55189514	0.21064201	-0.00002541	0.96257383	0.00000000	0.00000000	0.00000000	0.00000000	0.00000000	0.00000000	-0.00068633	-2.26060653	-0.00040053	0.00000000	0.00000000	0.00000000
5.352000	-59.61972046	633.53417969	84.86375427	0.21105106	-0.00002540	0.96181113	0.00000000	0.00000000	0.00000000	0.00000000	0.00000000	0.00000000	-0.00072773	-2.39697933	-0.00042470	0.00000000	0.00000000	0.00000000
5.356000	-61.18861389	637.48950195	82.44633484	0.21142405	-0.00002537	0.96101922	0.00000000	0.00000000	0.00000000	0.00000000	0.00000000	0.00000000	-0.00076725	-2.52715874	-0.00044776	0.00000000	0.00000000	0.00000000
5.360000	-62.46673584	642.23736572	80.31432343	0.21177052	-0.00002533	0.96021557	0.00000000	0.00000000	0.00000000	0.00000000	0.00000000	0.00000000	-0.00080284	-2.64437485	-0.00046853	0.00000000	0.00000000	0.00000000
5.364000	-63.48769379	647.51330566	78.51401520	0.21210799	-0.00002529	0.95940560	0.00000000	0.00000000	0.00000000	0.00000000	0.00000000	0.00000000	-0.00083319	-2.74434209	-0.00048624	0.00000000	0.00000000	0.00000000
5.368000	-64.28301239	653.20336914	77.06429291	0.21244201	-0.00002525	0.95858967	0.00000000	0.00000000	0.00000000	0.00000000	0.00000000	0.00000000	-0.00085673	-2.82188129	-0.00049998	0.00000000	0.00000000	0.00000000
5.372000	-64.82544708	659.39056396	75.91682434	0.21275812	-0.00002520	0.95776474	0.00000000	0.00000000	0.00000000	0.00000000	0.00000000	0.00000000	-0.00087551	-2.88374138	-0.00051094	0.00000000	0.00000000	0.00000000
5.376000	-65.05411530	666.20379639	75.01057434	0.21304163	-0.00002514	0.95693171	0.00000000	0.00000000	0.00000000	0.00000000	0.00000000	0.00000000	-0.00088959	-2.93010449	-0.00051916	0.00000000	0.00000000	0.00000000
5.380000	-64.95653534	673.59625244	74.28246307	0.21329436	-0.00002507	0.95609277	0.00000000	0.00000000	0.00000000	0.00000000	0.00000000	0.00000000	-0.00089943	-2.96252656	-0.00052490	0.00000000	0.00000000	0.00000000
5.384000	-64.57911682	681.33764648	73.67789459	0.21352790	-0.00002499	0.95525748	0.00000000	0.00000000	0.00000000	0.00000000	0.00000000	0.00000000	-0.00090533	-2.98194480	-0.00052834	0.00000000	0.00000000	0.00000000
5.388000	-63.97875214	689.15637207	73.15699005	0.21375318	-0.00002491	0.95443189	0.00000000	0.00000000	0.00000000	0.00000000	0.00000000	0.00000000	-0.00090528	-2.98180747	-0.00052832	0.00000000	0.00000000	0.00000000
5.392000	-63.19972610	696.93200684	72.66518402	0.21397047	-0.00002483	0.95361209	0.00000000	0.00000000	0.00000000	0.00000000	0.00000000	0.00000000	-0.00089951	-2.96278524	-0.00052495	0.00000000	0.00000000	0.00000000
5.396000	-62.26948166	704.60662842	72.13314056	0.21417320	-0.00002475	0.95279086	0.00000000	0.00000000	0.00000000	0.00000000	0.00000000	0.00000000	-0.00088731	-2.92261219	-0.00051783	0.00000000	0.00000000	0.00000000
5.400000	-61.19029236	712.10650635	71.48521423	0.21436155	-0.00002466	0.95196694	0.00000000	0.00000000	0.00000000	0.00000000	0.00000000	0.00000000	-0.00086964	-2.86441469	-0.00050752	0.00000000	0.00000000	0.00000000
5.404000	-60.00220871	719.27313232	70.68360901	0.21454690	-0.00002457	0.95114350	0.00000000	0.00000000	0.00000000	0.00000000	0.00000000	0.00000000	-0.00084584	-2.78600907	-0.00049363	0.00000000	0.00000000	0.00000000
5.408000	-58.77886963	725.88275146	69.72003174	0.21473999	-0.00002448	0.95031947	0.00000000	0.00000000	0.00000000	0.00000000	0.00000000	0.00000000	-0.00081662	-2.68976736	-0.00047657	0.00000000	0.00000000	0.00000000
5.412000	-57.58334351	731.78210449	68.59456635	0.21494834	-0.00002440	0.94948804	0.00000000	0.00000000	0.00000000	0.00000000	0.00000000	0.00000000	-0.00078340	-2.58035088	-0.00045719	0.00000000	0.00000000	0.00000000
5.416000	-56.42410278	736.93310547	67.29878998	0.21517205	-0.00002432	0.94864315	0.00000000	0.00000000	0.00000000	0.00000000	0.00000000	0.00000000	-0.00074714	-2.46090388	-0.00043602	0.00000000	0.00000000	0.00000000
5.420000	-55.31581497	741.34716797	65.84117126	0.21540877	-0.00002423	0.94778436	0.00000000	0.00000000	0.00000000	0.00000000	0.00000000	0.00000000	-0.00070915	-2.33577847	-0.00041385	0.00000000	0.00000000	0.00000000
5.424000	-54.28157425	745.02349854	64.23013306	0.21566094	-0.00002416	0.94690573	0.00000000	0.00000000	0.00000000	0.00000000	0.00000000	0.00000000	-0.00067057	-2.20871210	-0.00039134	0.00000000	0.00000000	0.00000000
5.428000	-53.33815384	747.93896484	62.50564957	0.21593419	-0.00002408	0.94601214	0.00000000	0.00000000	0.00000000	0.00000000	0.00000000	0.00000000	-0.00063276	-2.08417106	-0.00036927	0.00000000	0.00000000	0.00000000
5.432000	-52.52536392	750.07824707	60.72032547	0.21623063	-0.00002401	0.94510323	0.00000000	0.00000000	0.00000000	0.00000000	0.00000000	0.00000000	-0.00059628	-1.96401441	-0.00034798	0.00000000	0.00000000	0.00000000
